# xmcd
#
# Track frame offsets: 
#        150
#        23100
#        46457
#        69670
#        95342
#        115267
#        139320
#        162130
#        187547
#        210552
#        232162
#
# Disc length: 3383 seconds
#
# Revision: 16
# Processed by: cddbd v1.5.2PL0 Copyright (c) Steve Scherf et al.
# Submitted via: ExactAudioCopy v0.99pb5
#
DISCID=920d350b
DTITLE=Michael Bolton - The One Thing
DYEAR=1993
DGENRE=Pop
TTITLE0=Said I Loved You... But I Lied
TTITLE1=I'm Not Made Of Steel
TTITLE2=The One Thing
TTITLE3=Soul Of My Soul
TTITLE4=Completely
TTITLE5=Lean On Me
TTITLE6=Ain't Got Nothing If You Ain't Got Love
TTITLE7=A Time For Letting Go
TTITLE8=Never Get Enought Of Your Love
TTITLE9=In The Arms Of Love
TTITLE10=The Voice Of My Heart
EXTD=
EXTT0=
EXTT1=
EXTT2=
EXTT3=
EXTT4=
EXTT5=
EXTT6=
EXTT7=
EXTT8=
EXTT9=
EXTT10=
PLAYORDER=
